# xmcd
#
# Track frame offsets:
#	150
#	22247
#	36535
#	58917
#	78915
#	99320
#	116585
#	142892
#	165955
#	181665
#	208577
#	237392
#
# Disc length: 3685 seconds
#
# Revision: 2
# Processed by: cddbd v1.4PL0 Copyright (c) Steve Scherf et al.
# Submitted via: EasyCDDAExtractor 4.6.0.1
#
DISCID=9c0e630c
DTITLE=Dave Graney and the Coral Snakes - The Soft 'N' Sexy Sound
DYEAR=1995
DGENRE=Blues
TTITLE0=The Birds and the Goats
TTITLE1=I'm Gonna Live in my Own Big World
TTITLE2=Apollo 69
TTITLE3=I'm not Afraid to be Heavy
TTITLE4=Deep Inside a Song
TTITLE5=The Pre-Revolutionary Scene
TTITLE6=Rock 'n' Roll is Where I Hide
TTITLE7=Salty Girls
TTITLE8=Outward Bound
TTITLE9=Scorched Earth Love Affair
TTITLE10=Morrison Floorshow
TTITLE11=Dandies are Never Unbuttoned
EXTD=
EXTT0=
EXTT1=
EXTT2=
EXTT3=
EXTT4=
EXTT5=
EXTT6=
EXTT7=
EXTT8=
EXTT9=
EXTT10=
EXTT11=
PLAYORDER=
